<svg width="24" height="24" viewBox="0 0 24 24" fill="none" xmlns="http://www.w3.org/2000/svg"><path opacity=".6" d="M8.00096 12C8.00096 9.79094 9.79134 7.99968 12.0005 7.99968C14.2096 7.99968 16.001 9.79094 16.001 12C16.001 14.2091 14.2096 16.0003 12.0005 16.0003C9.79134 16.0003 8.00096 14.2091 8.00096 12ZM5.83838 12C5.83838 15.4032 8.59714 18.1619 12.0005 18.1619C15.4038 18.1619 18.1626 15.4032 18.1626 12C18.1626 8.5968 15.4038 5.83814 12.0005 5.83814C8.59714 5.83814 5.83838 8.5968 5.83838 12ZM16.9665 5.59382C16.9664 5.87863 17.0507 6.15707 17.2088 6.39394C17.367 6.63081 17.5918 6.81547 17.8549 6.92457C18.118 7.03366 18.4075 7.06229 18.6869 7.00684C18.9663 6.95139 19.2229 6.81435 19.4244 6.61304C19.6259 6.41173 19.7631 6.15521 19.8188 5.8759C19.8745 5.59658 19.8461 5.30704 19.7372 5.04387C19.6283 4.7807 19.4438 4.55573 19.2071 4.3974C18.9703 4.23908 18.6919 4.15451 18.4071 4.1544H18.4065C18.0248 4.15458 17.6587 4.30627 17.3887 4.57616C17.1186 4.84605 16.9668 5.21207 16.9665 5.59382V5.59382ZM7.15229 21.7677C5.98229 21.7144 5.34636 21.5196 4.92375 21.3549C4.36347 21.1368 3.96371 20.877 3.54341 20.4573C3.1231 20.0376 2.86293 19.6382 2.64577 19.078C2.48103 18.6556 2.28614 18.0195 2.23295 16.8495C2.17477 15.5846 2.16316 15.2047 2.16316 12.0001C2.16316 8.79552 2.17574 8.41661 2.23295 7.15066C2.28624 5.9807 2.48256 5.34586 2.64577 4.92221C2.86389 4.36195 3.12368 3.96221 3.54341 3.54192C3.96313 3.12163 4.36251 2.86147 4.92375 2.64432C5.34617 2.47958 5.98229 2.2847 7.15229 2.23152C8.41723 2.17334 8.79722 2.16173 12.0005 2.16173C15.2037 2.16173 15.5841 2.1743 16.8501 2.23152C18.0201 2.2848 18.655 2.48112 19.0787 2.64432C19.6389 2.86147 20.0387 3.12221 20.459 3.54192C20.8793 3.96163 21.1385 4.36195 21.3566 4.92221C21.5214 5.34461 21.7163 5.9807 21.7694 7.15066C21.8276 8.41661 21.8392 8.79552 21.8392 12.0001C21.8392 15.2047 21.8276 15.5836 21.7694 16.8495C21.7162 18.0195 21.5203 18.6554 21.3566 19.078C21.1385 19.6382 20.8787 20.038 20.459 20.4573C20.0393 20.8766 19.6389 21.1368 19.0787 21.3549C18.6562 21.5196 18.0201 21.7145 16.8501 21.7677C15.5852 21.8259 15.2052 21.8375 12.0005 21.8375C8.79578 21.8375 8.41685 21.8259 7.15229 21.7677V21.7677ZM7.05292 0.072672C5.7754 0.130848 4.90244 0.333408 4.14007 0.630048C3.35053 0.936384 2.68216 1.34736 2.01426 2.01418C1.34636 2.68099 0.936421 3.3504 0.630073 4.1399C0.333421 4.90272 0.130853 5.77517 0.0726749 7.05264C0.0135365 8.33213 0 8.74118 0 12C0 15.2588 0.0135365 15.6679 0.0726749 16.9474C0.130853 18.2249 0.333421 19.0973 0.630073 19.8601C0.936421 20.6491 1.34645 21.3193 2.01426 21.9858C2.68206 22.6524 3.35053 23.0628 4.14007 23.37C4.90388 23.6666 5.7754 23.8692 7.05292 23.9273C8.33313 23.9855 8.74153 24 12.0005 24C15.2594 24 15.6685 23.9865 16.948 23.9273C18.2257 23.8692 19.098 23.6666 19.8609 23.37C20.6499 23.0628 21.3188 22.6526 21.9867 21.9858C22.6546 21.319 23.0637 20.6491 23.3709 19.8601C23.6675 19.0973 23.8711 18.2248 23.9283 16.9474C23.9865 15.6669 24 15.2588 24 12C24 8.74118 23.9865 8.33213 23.9283 7.05264C23.8701 5.77507 23.6675 4.90224 23.3709 4.1399C23.0637 3.35088 22.6535 2.68205 21.9867 2.01418C21.3199 1.3463 20.6499 0.936384 19.8619 0.630048C19.098 0.333408 18.2256 0.129888 16.949 0.072672C15.6695 0.014496 15.2604 0 12.0014 0C8.74249 0 8.33313 0.013536 7.05292 0.072672Z" fill="#fff"/></svg>