<svg width="64" height="64" viewBox="0 0 64 64" fill="none" xmlns="http://www.w3.org/2000/svg"><path d="M23.0497 8.95058C23.0497 4.00759 27.0573 0 32.001 0C36.9433 0 40.9509 4.00759 40.9509 8.95058C40.9509 13.8936 36.9433 17.9012 32.001 17.9012C27.0573 17.9012 23.0497 13.8936 23.0497 8.95058ZM36.3019 23.9992C36.3925 22.0505 37.0626 20.2464 38.1426 18.7545C37.3847 18.5959 36.6023 18.5117 35.7988 18.5117H28.204C27.4033 18.5117 26.6209 18.5952 25.8672 18.7524C27.0159 20.346 27.7036 22.2912 27.7149 24.3978C29.1099 23.6294 30.712 23.1922 32.4144 23.1922C33.7954 23.1922 35.1097 23.4799 36.3019 23.9992ZM37.8177 24.802C40.4176 26.4321 42.2407 29.1906 42.5726 32.3926C43.6329 32.888 44.8097 33.1729 46.0574 33.1729C50.6123 33.1729 54.3042 29.4811 54.3042 24.9269C54.3042 20.372 50.6123 16.6802 46.0574 16.6802C41.546 16.6809 37.8864 20.3067 37.8177 24.802ZM32.4144 41.6878C36.9693 41.6878 40.6611 37.9945 40.6611 33.4403C40.6611 28.8868 36.9686 25.1943 32.4144 25.1943C27.8601 25.1943 24.1662 28.8868 24.1662 33.4403C24.1662 37.9952 27.8608 41.6878 32.4144 41.6878ZM35.9125 42.2491H28.9148C23.0926 42.2491 18.3559 46.9865 18.3559 52.8081V61.3664L18.3776 61.4997L18.9671 61.685C24.5234 63.4204 29.3506 64 33.3238 64C41.0842 64 45.5823 61.7881 45.8595 61.6464L46.4104 61.3671H46.4693V52.8081C46.4714 46.9865 41.7347 42.2491 35.9125 42.2491ZM49.5569 33.7364H42.6133C42.5382 36.5146 41.3523 39.0156 39.4766 40.8155C44.6518 42.3544 48.4384 47.1528 48.4384 52.8214V55.4592C55.2943 55.2073 59.245 53.2642 59.5054 53.1344L60.0562 52.8551H60.1152V44.2947C60.1152 38.4731 55.3785 33.7364 49.5569 33.7364ZM17.9447 33.1729C19.5579 33.1729 21.0589 32.7028 22.3305 31.9007C22.7347 29.2643 24.148 26.9605 26.1668 25.3914C26.1753 25.2371 26.19 25.0841 26.19 24.9283C26.19 20.3734 22.4975 16.6816 17.9447 16.6816C13.389 16.6816 9.69791 20.3734 9.69791 24.9283C9.69721 29.4818 13.389 33.1729 17.9447 33.1729ZM25.35 40.8155C23.4834 39.0254 22.3017 36.5363 22.2154 33.7764C21.9579 33.7575 21.7031 33.7364 21.4407 33.7364H14.4437C8.62145 33.7364 3.88477 38.4731 3.88477 44.2947V52.853L3.90652 52.9856L4.49597 53.1709C8.95337 54.5631 12.9315 55.2038 16.3868 55.4066V52.8214C16.3882 47.1528 20.1741 42.3544 25.35 40.8155Z" fill="url(#paint0_linear)"/><defs><linearGradient id="paint0_linear" x1="3.885" y1="46.367" x2="39.428" y2="46.367" gradientUnits="userSpaceOnUse"><stop stop-color="#DD3A89"/><stop offset="1" stop-color="#3194C6"/></linearGradient></defs></svg>