<svg width="51" height="64" viewBox="0 0 51 64" fill="none" xmlns="http://www.w3.org/2000/svg"><g clip-path="url(#clip0)"><path d="M26.3613 27.2373C34.4354 27.2373 40.9796 21.1131 40.9796 13.5611C40.9796 6.01026 34.4342 -0.112793 26.3613 -0.112793C18.2883 -0.112793 11.7404 6.01026 11.7404 13.5611C11.7404 21.1143 18.2896 27.2373 26.3613 27.2373ZM32.5621 28.1682H20.1579C9.83726 28.1682 1.44092 36.0239 1.44092 45.6775V59.8692L1.47948 60.0903L2.52435 60.3975C12.3736 63.2751 20.9304 64.2363 27.9734 64.2363C41.7297 64.2363 49.7031 60.5685 50.1944 60.3334L51.1709 59.8703H51.2754V45.6775C51.2791 36.0239 42.8828 28.1682 32.5621 28.1682Z" fill="url(#paint0_linear)"/></g><defs><linearGradient id="paint0_linear" x1="1.441" y1="46.508" x2="32.942" y2="46.508" gradientUnits="userSpaceOnUse"><stop stop-color="#DD3A89"/><stop offset="1" stop-color="#3194C6"/></linearGradient><clipPath id="clip0"><path fill="#fff" d="M0 0H51V64H0z"/></clipPath></defs></svg>