<svg width="64" height="64" viewBox="0 0 64 64" fill="none" xmlns="http://www.w3.org/2000/svg"><path d="M27.7873 24.8485C30.2561 22.1707 31.6164 18.5788 31.6164 14.7334C31.6164 7.41179 26.3867 0 16.3898 0C11.7374 0 7.81256 1.59796 5.03898 4.62104C2.58215 7.29922 1.22949 10.8903 1.22949 14.7334C1.22949 22.0557 6.43695 29.4671 16.3898 29.4671C21.0595 29.4673 25.0016 27.8706 27.7873 24.8485ZM16.3898 6.85053C21.8673 6.85053 24.3618 10.9394 24.3618 14.7386C24.3618 16.8052 23.6665 18.7183 22.4026 20.1248C20.9927 21.6959 18.9436 22.5266 16.4786 22.5266C10.8626 22.5266 8.30417 18.4381 8.30417 14.6394C8.30417 10.763 10.8047 6.85053 16.3898 6.85053Z" fill="url(#paint0_linear)"/><path d="M52.748 5.68395C51.842 5.70031 50.6051 6.26517 49.9992 6.93881L5.02702 56.94C4.42125 57.614 4.85038 58.5589 5.75635 58.5589H11.6424C12.5484 58.5589 13.7841 58.0064 14.3889 57.3318L59.083 7.34079C59.6875 6.66556 59.6474 5.56698 58.1504 5.56738L52.748 5.68395Z" fill="url(#paint1_linear)"/><path d="M47.8326 35.0933C43.2701 35.0933 39.4197 36.6617 36.6986 39.6271C34.2886 42.2534 32.9609 45.7768 32.9609 49.5468C32.9609 56.7291 38.0694 63.9999 47.8328 63.9999C52.4149 63.9999 56.2809 62.4331 59.0142 59.4689C61.4363 56.8418 62.7702 53.3182 62.7702 49.5468C62.77 42.3645 57.6394 35.0933 47.8326 35.0933ZM47.9208 57.3674C42.4569 57.3674 39.9673 53.2643 39.9673 49.4538C39.9673 47.3786 40.6623 45.4583 41.9252 44.0463C43.3329 42.4707 45.3756 41.638 47.8328 41.638C53.2972 41.638 55.7855 45.7403 55.7855 49.552C55.7855 51.6268 55.0903 53.5475 53.8285 54.9594C52.4203 56.5347 50.3775 57.3674 47.9208 57.3674Z" fill="url(#paint2_linear)"/><defs><linearGradient id="paint0_linear" x1="1.229" y1="21.349" x2="20.437" y2="21.349" gradientUnits="userSpaceOnUse"><stop stop-color="#DD3A89"/><stop offset="1" stop-color="#3194C6"/></linearGradient><linearGradient id="paint1_linear" x1="4.745" y1="43.959" x2="39.323" y2="43.959" gradientUnits="userSpaceOnUse"><stop stop-color="#DD3A89"/><stop offset="1" stop-color="#3194C6"/></linearGradient><linearGradient id="paint2_linear" x1="32.961" y1="56.036" x2="51.804" y2="56.036" gradientUnits="userSpaceOnUse"><stop stop-color="#DD3A89"/><stop offset="1" stop-color="#3194C6"/></linearGradient></defs></svg>