<svg width="64" height="64" viewBox="0 0 64 64" fill="none" xmlns="http://www.w3.org/2000/svg"><path d="M46.8683 58.0836H34.2617V53.2612C39.476 52.6979 44.5022 50.1892 48.9241 45.921C58.3633 36.8007 64 21.0012 64 3.65663C64 2.40818 62.9859 1.39405 61.7374 1.39405H51.0763C49.8288 1.39405 48.8145 2.40818 48.8145 3.65663V6.70543H15.1858V3.65564C15.1858 2.4072 14.1712 1.39307 12.9232 1.39307H2.26307C1.01413 1.39307 0 2.4072 0 3.65564C0 21.0012 5.63669 36.7997 15.0754 45.9181C19.4917 50.1853 24.5206 52.696 29.7349 53.259V58.0816H17.1281C15.8802 58.0816 14.8656 59.0958 14.8656 60.3442C14.8656 61.5936 15.8802 62.6068 17.1281 62.6068H46.8661C48.1185 62.6068 49.1287 61.5936 49.1287 60.3442C49.1289 59.0958 48.1208 58.0836 46.8683 58.0836ZM53.339 5.91773H59.4375C58.9787 20.5742 54.0844 34.171 46.3957 42.0496C46.4429 41.964 46.4805 41.8676 46.5256 41.7807C46.9963 40.8769 47.4443 39.9377 47.8726 38.9521C47.9473 38.7768 48.0193 38.5947 48.0951 38.4174C48.5084 37.4318 48.9034 36.4188 49.2707 35.3632C49.2982 35.2853 49.3278 35.2096 49.3533 35.1319C49.7334 34.029 50.0818 32.8821 50.409 31.7108C50.4739 31.48 50.5388 31.2526 50.5998 31.0192C50.913 29.8628 51.1985 28.6784 51.4565 27.4654C51.5047 27.2439 51.549 27.0209 51.5935 26.7984C51.8496 25.5588 52.0827 24.2986 52.2836 23.0093C52.2915 22.9619 52.3013 22.9168 52.3062 22.8689C52.51 21.5516 52.6717 20.2046 52.8163 18.8424C52.8448 18.586 52.8724 18.333 52.899 18.0749C53.025 16.7482 53.1283 15.4032 53.1993 14.042C53.2151 13.787 53.223 13.531 53.2348 13.2761C53.2977 11.8514 53.3392 10.4178 53.3392 8.96554V5.91773H53.339ZM4.56106 5.91773H10.6596V8.96653C10.6596 10.4186 10.701 11.8523 10.7656 13.277C10.7779 13.532 10.7867 13.7881 10.801 14.0431C10.8715 15.4042 10.9723 16.7492 11.1014 18.076C11.1245 18.3339 11.1552 18.5871 11.1812 18.8424C11.3265 20.2056 11.4908 21.5525 11.6941 22.8699C11.7005 22.9178 11.7094 22.9609 11.7172 23.0081C11.9171 24.302 12.1509 25.5623 12.4069 26.8033C12.4513 27.0229 12.4925 27.2449 12.5394 27.4616C12.8024 28.6786 13.0878 29.8666 13.4003 31.0248C13.4628 31.2537 13.5238 31.4772 13.5899 31.7022C13.9193 32.8783 14.2672 34.0302 14.6473 35.1359C14.6704 35.2068 14.6975 35.2727 14.7241 35.3427C15.0948 36.411 15.4931 37.4369 15.9115 38.4314C15.982 38.6007 16.0499 38.775 16.1232 38.9403C16.5539 39.9318 17.0075 40.8809 17.4815 41.7907C17.5228 41.8714 17.5612 41.9648 17.6027 42.0447C9.91032 34.17 5.02083 20.5732 4.56106 5.91773Z" fill="url(#paint0_linear)"/><defs><linearGradient id="paint0_linear" x1="0" y1="45.742" x2="40.455" y2="45.742" gradientUnits="userSpaceOnUse"><stop stop-color="#DD3A89"/><stop offset="1" stop-color="#3194C6"/></linearGradient></defs></svg>