<svg width="64" height="64" viewBox="0 0 64 64" fill="none" xmlns="http://www.w3.org/2000/svg"><path d="M23 8C24.6569 8 26 6.65685 26 5C26 3.34315 24.6569 2 23 2C21.3431 2 20 3.34315 20 5C20 6.65685 21.3431 8 23 8Z" fill="url(#paint0_linear)"/><path d="M29 8C30.6569 8 32 6.65685 32 5C32 3.34315 30.6569 2 29 2C27.3431 2 26 3.34315 26 5C26 6.65685 27.3431 8 29 8Z" fill="url(#paint1_linear)"/><path d="M35 8C36.6569 8 38 6.65685 38 5C38 3.34315 36.6569 2 35 2C33.3431 2 32 3.34315 32 5C32 6.65685 33.3431 8 35 8Z" fill="url(#paint2_linear)"/><path d="M41 8C42.6569 8 44 6.65685 44 5C44 3.34315 42.6569 2 41 2C39.3431 2 38 3.34315 38 5C38 6.65685 39.3431 8 41 8Z" fill="url(#paint3_linear)"/><path d="M26 14C27.6569 14 29 12.6569 29 11C29 9.34315 27.6569 8 26 8C24.3431 8 23 9.34315 23 11C23 12.6569 24.3431 14 26 14Z" fill="url(#paint4_linear)"/><path d="M32 14C33.6569 14 35 12.6569 35 11C35 9.34315 33.6569 8 32 8C30.3431 8 29 9.34315 29 11C29 12.6569 30.3431 14 32 14Z" fill="url(#paint5_linear)"/><path d="M38 14C39.6569 14 41 12.6569 41 11C41 9.34315 39.6569 8 38 8C36.3431 8 35 9.34315 35 11C35 12.6569 36.3431 14 38 14Z" fill="url(#paint6_linear)"/><path d="M29 20C30.6569 20 32 18.6569 32 17C32 15.3431 30.6569 14 29 14C27.3431 14 26 15.3431 26 17C26 18.6569 27.3431 20 29 20Z" fill="url(#paint7_linear)"/><path d="M35 20C36.6569 20 38 18.6569 38 17C38 15.3431 36.6569 14 35 14C33.3431 14 32 15.3431 32 17C32 18.6569 33.3431 20 35 20Z" fill="url(#paint8_linear)"/><path d="M32 26C33.6569 26 35 24.6569 35 23C35 21.3431 33.6569 20 32 20C30.3431 20 29 21.3431 29 23C29 24.6569 30.3431 26 32 26Z" fill="url(#paint9_linear)"/><path d="M32 62C33.6569 62 35 60.6569 35 59C35 57.3431 33.6569 56 32 56C30.3431 56 29 57.3431 29 59C29 60.6569 30.3431 62 32 62Z" fill="url(#paint10_linear)"/><path d="M38.8858 49.0249L34.7998 51.9439L40.2428 60.7939C40.4748 61.1628 40.7966 61.4669 41.178 61.6778C41.5594 61.8887 41.988 61.9995 42.4238 61.9999C43.107 61.9999 43.7622 61.7285 44.2453 61.2454C44.7284 60.7623 44.9998 60.1071 44.9998 59.4239C44.9999 58.4967 44.7166 57.5916 44.1878 56.8299L38.8858 49.0249Z" fill="url(#paint11_linear)"/><path d="M25.114 49.0249L19.814 56.8299C19.2845 57.5913 19.0005 58.4965 19 59.4239C19 60.1071 19.2714 60.7623 19.7545 61.2454C20.2376 61.7285 20.8928 61.9999 21.576 61.9999C22.012 61.9997 22.4408 61.889 22.8224 61.6781C23.204 61.4672 23.5259 61.163 23.758 60.7939L29.201 51.9439L25.114 49.0249Z" fill="url(#paint12_linear)"/><path d="M53.682 7.99987C53.4712 7.9997 53.2635 8.0501 53.0763 8.14685C52.8891 8.2436 52.7278 8.38387 52.606 8.55587L32 38.8889L11.394 8.55587C11.2324 8.32742 11.0023 8.15634 10.737 8.06738C10.4716 7.97843 10.1849 7.97623 9.91825 8.06111C9.6516 8.14598 9.41888 8.31352 9.25379 8.53947C9.08871 8.76542 8.99982 9.03804 9 9.31787C8.99989 9.76401 9.12234 10.2016 9.354 10.5829L29.254 42.9309L26.238 47.3699L30.252 50.2369L32 47.3999L33.748 50.2419L37.762 47.3749L34.746 42.9359L54.646 10.5879C54.8785 10.2051 55.001 9.76571 55 9.31787C55 8.96832 54.8611 8.63308 54.614 8.38591C54.3668 8.13874 54.0316 7.99987 53.682 7.99987V7.99987Z" fill="url(#paint13_linear)"/><defs><linearGradient id="paint0_linear" x1="20" y1="6.347" x2="23.793" y2="6.347" gradientUnits="userSpaceOnUse"><stop stop-color="#DD3A89"/><stop offset="1" stop-color="#3194C6"/></linearGradient><linearGradient id="paint1_linear" x1="26" y1="6.347" x2="29.793" y2="6.347" gradientUnits="userSpaceOnUse"><stop stop-color="#DD3A89"/><stop offset="1" stop-color="#3194C6"/></linearGradient><linearGradient id="paint2_linear" x1="32" y1="6.347" x2="35.793" y2="6.347" gradientUnits="userSpaceOnUse"><stop stop-color="#DD3A89"/><stop offset="1" stop-color="#3194C6"/></linearGradient><linearGradient id="paint3_linear" x1="38" y1="6.347" x2="41.793" y2="6.347" gradientUnits="userSpaceOnUse"><stop stop-color="#DD3A89"/><stop offset="1" stop-color="#3194C6"/></linearGradient><linearGradient id="paint4_linear" x1="23" y1="12.347" x2="26.793" y2="12.347" gradientUnits="userSpaceOnUse"><stop stop-color="#DD3A89"/><stop offset="1" stop-color="#3194C6"/></linearGradient><linearGradient id="paint5_linear" x1="29" y1="12.347" x2="32.793" y2="12.347" gradientUnits="userSpaceOnUse"><stop stop-color="#DD3A89"/><stop offset="1" stop-color="#3194C6"/></linearGradient><linearGradient id="paint6_linear" x1="35" y1="12.347" x2="38.793" y2="12.347" gradientUnits="userSpaceOnUse"><stop stop-color="#DD3A89"/><stop offset="1" stop-color="#3194C6"/></linearGradient><linearGradient id="paint7_linear" x1="26" y1="18.347" x2="29.793" y2="18.347" gradientUnits="userSpaceOnUse"><stop stop-color="#DD3A89"/><stop offset="1" stop-color="#3194C6"/></linearGradient><linearGradient id="paint8_linear" x1="32" y1="18.347" x2="35.793" y2="18.347" gradientUnits="userSpaceOnUse"><stop stop-color="#DD3A89"/><stop offset="1" stop-color="#3194C6"/></linearGradient><linearGradient id="paint9_linear" x1="29" y1="24.347" x2="32.793" y2="24.347" gradientUnits="userSpaceOnUse"><stop stop-color="#DD3A89"/><stop offset="1" stop-color="#3194C6"/></linearGradient><linearGradient id="paint10_linear" x1="29" y1="60.347" x2="32.793" y2="60.347" gradientUnits="userSpaceOnUse"><stop stop-color="#DD3A89"/><stop offset="1" stop-color="#3194C6"/></linearGradient><linearGradient id="paint11_linear" x1="34.8" y1="58.425" x2="41.247" y2="58.425" gradientUnits="userSpaceOnUse"><stop stop-color="#DD3A89"/><stop offset="1" stop-color="#3194C6"/></linearGradient><linearGradient id="paint12_linear" x1="19" y1="58.425" x2="25.448" y2="58.425" gradientUnits="userSpaceOnUse"><stop stop-color="#DD3A89"/><stop offset="1" stop-color="#3194C6"/></linearGradient><linearGradient id="paint13_linear" x1="9" y1="38.603" x2="38.077" y2="38.603" gradientUnits="userSpaceOnUse"><stop stop-color="#DD3A89"/><stop offset="1" stop-color="#3194C6"/></linearGradient></defs></svg>