<svg width="24" height="24" viewBox="0 0 24 24" fill="none" xmlns="http://www.w3.org/2000/svg"><g opacity=".6"><rect x="1" y="1" width="22" height="22" rx="6" stroke="#fff" stroke-width="2"/><path fill-rule="evenodd" clip-rule="evenodd" d="M15.1336 17.9014C16.0123 18.2659 16.3418 17.5023 16.3418 17.5023L18.6667 6.43021C18.6484 5.68398 17.5866 6.13519 17.5866 6.13519L4.57092 10.9771C4.57092 10.9771 3.94851 11.1853 4.00343 11.5497C4.05835 11.9142 4.55262 12.0877 4.55262 12.0877L7.82942 13.129C7.82942 13.129 8.81795 16.2007 9.01932 16.7908C9.20238 17.3635 9.36714 17.3808 9.36714 17.3808C9.5502 17.4502 9.71495 17.3288 9.71495 17.3288L11.8385 15.5065L15.1336 17.9014ZM15.5752 8.76907C15.5752 8.76907 16.0073 8.53856 15.99 8.76907C15.99 8.76907 16.0591 8.7998 15.8344 9.01493C15.6271 9.19934 10.7362 13.1025 10.0795 13.625C10.0276 13.6557 9.99308 13.7018 9.99308 13.7633L9.80298 15.2078C9.76842 15.3614 9.54375 15.3768 9.4919 15.2385L8.67964 12.872C8.64508 12.7798 8.67964 12.6722 8.78334 12.6108L15.5752 8.76907Z" fill="#fff"/></g></svg>