<svg width="24" height="24" viewBox="0 0 24 24" fill="none" xmlns="http://www.w3.org/2000/svg"><g opacity=".6"><rect x="1" y="1" width="22" height="22" rx="6" stroke="#fff" stroke-width="2"/><path d="M16.1001 7.17077C15.8024 6.89707 14.5972 6.02075 11.9106 6.00874C11.9106 6.00874 8.74384 5.81667 7.20007 7.23319C6.34056 8.0927 6.03805 9.34836 6.00684 10.9089C5.97563 12.4671 5.93481 15.389 8.75104 16.1813H8.75344L8.75104 17.3889C8.75104 17.3889 8.73424 17.8787 9.05595 17.9771C9.4449 18.0972 9.67538 17.725 10.0475 17.3241C10.2516 17.1032 10.5325 16.7815 10.7462 16.5342C12.6717 16.695 14.153 16.3253 14.3211 16.2701C14.71 16.1428 16.9116 15.8619 17.2694 12.9401C17.6391 9.93418 17.0893 8.03028 16.1001 7.17077ZM16.4266 12.7288C16.1241 15.1681 14.3403 15.3217 14.0114 15.4274C13.8721 15.473 12.5708 15.7971 10.9334 15.6891C10.9334 15.6891 9.71379 17.1608 9.33445 17.5426C9.27443 17.6026 9.20481 17.6266 9.15919 17.6146C9.09437 17.5978 9.07516 17.521 9.07756 17.4081C9.07756 17.2449 9.08716 15.3986 9.08716 15.3986C9.08476 15.3986 9.08476 15.3986 9.08716 15.3986C6.70309 14.7383 6.84234 12.251 6.86875 10.9497C6.89516 9.64847 7.14005 8.58008 7.86752 7.86222C9.17119 6.68099 11.8626 6.85625 11.8626 6.85625C14.1338 6.86585 15.2214 7.55011 15.4735 7.77819C16.3114 8.49845 16.7388 10.2151 16.4266 12.7288Z" fill="#fff"/><path opacity=".6" d="M13.0175 10.9954C12.9383 10.9954 12.8711 10.9329 12.8663 10.8513C12.8399 10.3351 12.5974 10.083 12.1028 10.0566C12.0188 10.0518 11.9539 9.9798 11.9587 9.89577C11.9635 9.81174 12.0356 9.74691 12.1196 9.75172C12.7726 9.78773 13.1376 10.1623 13.1712 10.8345C13.176 10.9185 13.1112 10.9906 13.0271 10.993C13.0223 10.9954 13.0199 10.9954 13.0175 10.9954Z" fill="#fff"/><path opacity=".6" d="M13.7953 11.2547H13.7929C13.7088 11.2523 13.6416 11.1826 13.644 11.0986C13.656 10.58 13.5072 10.1599 13.1902 9.81414C12.8757 9.46842 12.4412 9.28115 11.8674 9.24033C11.7833 9.23313 11.7209 9.1611 11.7281 9.07707C11.7353 8.99304 11.8073 8.93062 11.8914 8.93782C12.5396 8.98584 13.051 9.21152 13.4159 9.61007C13.7833 10.011 13.9609 10.5128 13.9489 11.1058C13.9465 11.1898 13.8769 11.2547 13.7953 11.2547Z" fill="#fff"/><path opacity=".6" d="M14.5921 11.5668C14.5081 11.5668 14.4409 11.4995 14.4409 11.4155C14.4337 10.4864 14.1672 9.77811 13.6246 9.24751C13.0892 8.72412 12.4097 8.45762 11.6102 8.45042C11.5262 8.45042 11.459 8.38079 11.459 8.29676C11.459 8.21273 11.5286 8.14551 11.6102 8.14551C12.4914 8.15271 13.2404 8.44802 13.8335 9.02903C14.4289 9.61004 14.7338 10.4119 14.7434 11.4107C14.7458 11.4971 14.6786 11.5668 14.5921 11.5668C14.5945 11.5668 14.5945 11.5668 14.5921 11.5668Z" fill="#fff"/><path d="M12.1389 12.8752C12.1389 12.8752 12.3526 12.8944 12.4678 12.7528L12.6911 12.4719C12.7991 12.3326 13.0608 12.2438 13.3153 12.3854C13.457 12.4646 13.7139 12.6231 13.8723 12.7407C14.0428 12.8656 14.3885 13.1537 14.3909 13.1561C14.5566 13.2954 14.595 13.4994 14.4821 13.7179C14.4821 13.7179 14.4821 13.7203 14.4821 13.7227C14.3669 13.9268 14.2108 14.1189 14.0164 14.2965C14.014 14.2965 14.014 14.2989 14.0116 14.2989C13.8507 14.4334 13.6922 14.5102 13.5386 14.527C13.5194 14.5318 13.4978 14.5318 13.469 14.5318C13.4017 14.5318 13.3345 14.5222 13.2673 14.5006L13.2625 14.4934C13.0224 14.4262 12.6239 14.2581 11.9612 13.8908C11.5291 13.6531 11.1713 13.4106 10.8664 13.1681C10.7056 13.0409 10.5423 12.8992 10.3742 12.7311C10.3694 12.7263 10.3622 12.7191 10.3574 12.7143C10.3526 12.7095 10.3454 12.7023 10.3406 12.6975C10.3358 12.6927 10.3286 12.6855 10.3238 12.6807C10.319 12.6759 10.3118 12.6687 10.307 12.6639C10.1413 12.4959 9.99729 12.3326 9.87005 12.1717C9.62756 11.8692 9.38507 11.5091 9.14738 11.0769C8.78005 10.4119 8.61199 10.0134 8.54476 9.77567L8.53756 9.77086C8.51595 9.70364 8.50635 9.63641 8.50635 9.56919C8.50635 9.54038 8.50635 9.51877 8.51115 9.49956C8.53036 9.34351 8.60718 9.18745 8.73923 9.02659C8.73923 9.02419 8.74163 9.02419 8.74163 9.02179C8.9193 8.82492 9.11137 8.67126 9.31544 8.55602C9.31544 8.55602 9.31784 8.55602 9.32025 8.55602C9.53632 8.44318 9.7404 8.48159 9.88205 8.64725C9.88205 8.64725 10.1726 8.99538 10.2974 9.16584C10.415 9.3267 10.5735 9.58119 10.6527 9.72285C10.7944 9.97734 10.7056 10.239 10.5663 10.3471L10.2854 10.5704C10.1437 10.6856 10.163 10.8993 10.163 10.8993C10.163 10.8993 10.5783 12.4791 12.1389 12.8752Z" fill="#fff"/></g></svg>