<svg width="24" height="24" viewBox="0 0 24 24" fill="none" xmlns="http://www.w3.org/2000/svg"><g opacity=".6"><rect x="1" y="1" width="22" height="22" rx="6" stroke="#fff" stroke-width="2"/><path fill-rule="evenodd" clip-rule="evenodd" d="M19.3302 8.54168C19.4322 8.22947 19.3302 8 18.8449 8H17.2404C16.8323 8 16.6444 8.19821 16.5424 8.41684C16.5424 8.41684 15.7264 10.2435 14.5704 11.43C14.1964 11.7735 14.0265 11.8826 13.8225 11.8826C13.7205 11.8826 13.5728 11.7735 13.5728 11.4613V8.54168C13.5728 8.16695 13.4544 8 13.1144 8H10.593C10.3381 8 10.1847 8.17389 10.1847 8.33874C10.1847 8.694 10.7626 8.77589 10.8222 9.77505V11.9453C10.8222 12.4211 10.7287 12.5074 10.5247 12.5074C9.98072 12.5074 8.65767 10.6724 7.87282 8.57295C7.71901 8.16484 7.56474 8 7.15467 8H5.55013C5.09169 8 5 8.19821 5 8.41684C5 8.80716 5.54405 10.7432 7.53288 13.3036C8.85892 15.052 10.7268 16 12.4267 16C13.4468 16 13.5728 15.7895 13.5728 15.4268V14.1053C13.5728 13.6842 13.6695 13.6002 13.9923 13.6002C14.2305 13.6002 14.6384 13.7095 15.5904 14.5525C16.6783 15.5516 16.8576 16 17.4696 16H19.0741C19.5326 16 19.7618 15.7895 19.6295 15.374C19.4849 14.9599 18.9655 14.3593 18.2762 13.6471C17.9022 13.2411 17.3412 12.8039 17.1714 12.5854C16.9333 12.3043 17.0013 12.1795 17.1714 11.9298C17.1714 11.9298 19.1262 9.40053 19.3302 8.54179V8.54168Z" fill="#fff"/></g></svg>