<svg width="24" height="24" viewBox="0 0 24 24" fill="none" xmlns="http://www.w3.org/2000/svg"><g opacity=".6"><rect x="1" y="1" width="22" height="22" rx="6" stroke="#fff" stroke-width="2"/><path d="M16.267 7.75135C15.1553 6.61622 13.6185 6 12.049 6C8.7139 6 6.0327 8.69189 6.0654 11.9676C6.0654 13.0054 6.35967 14.0108 6.85014 14.9189L6 18L9.17166 17.1892C10.0545 17.6757 11.0354 17.9027 12.0163 17.9027C15.3188 17.9027 18 15.2108 18 11.9351C18 10.3459 17.3787 8.85405 16.267 7.75135ZM12.049 16.8973C11.1662 16.8973 10.2834 16.6703 9.53134 16.2162L9.33515 16.1189L7.43869 16.6054L7.92916 14.7568L7.79836 14.5622C6.35967 12.2595 7.04632 9.21081 9.40054 7.78378C11.7548 6.35676 14.7956 7.03784 16.2343 9.37297C17.673 11.7081 16.9864 14.7243 14.6322 16.1514C13.8801 16.6378 12.9646 16.8973 12.049 16.8973ZM14.9264 13.2973L14.5668 13.1351C14.5668 13.1351 14.0436 12.9081 13.7166 12.7459C13.6839 12.7459 13.6512 12.7135 13.6185 12.7135C13.5204 12.7135 13.455 12.7459 13.3896 12.7784C13.3896 12.7784 13.3569 12.8108 12.8992 13.3297C12.8665 13.3946 12.8011 13.427 12.7357 13.427H12.703C12.6703 13.427 12.6049 13.3946 12.5722 13.3622L12.4087 13.2973C12.049 13.1351 11.7221 12.9405 11.4605 12.6811C11.3951 12.6162 11.297 12.5514 11.2316 12.4865C11.0027 12.2595 10.7738 12 10.6104 11.7081L10.5777 11.6432C10.545 11.6108 10.545 11.5784 10.5123 11.5135C10.5123 11.4486 10.5123 11.3838 10.545 11.3514C10.545 11.3514 10.6757 11.1892 10.7738 11.0919C10.8392 11.027 10.8719 10.9297 10.9373 10.8649C11.0027 10.7676 11.0354 10.6378 11.0027 10.5405C10.97 10.3784 10.5777 9.5027 10.4796 9.30811C10.4142 9.21081 10.3488 9.17838 10.2507 9.14595H10.1526C10.0872 9.14595 9.9891 9.14595 9.89101 9.14595C9.82561 9.14595 9.76022 9.17838 9.69482 9.17838L9.66213 9.21081C9.59673 9.24324 9.53133 9.30811 9.46594 9.34054C9.40054 9.40541 9.36785 9.47027 9.30245 9.53514C9.07357 9.82703 8.94278 10.1838 8.94278 10.5405C8.94278 10.8 9.00817 11.0595 9.10627 11.2865L9.13896 11.3838C9.43324 12 9.82561 12.5514 10.3488 13.0378L10.4796 13.1676C10.5777 13.2649 10.6757 13.3297 10.7411 13.427C11.4278 14.0108 12.2125 14.4324 13.0954 14.6595C13.1935 14.6919 13.3243 14.6919 13.4223 14.7243C13.5204 14.7243 13.6512 14.7243 13.7493 14.7243C13.9128 14.7243 14.109 14.6595 14.2398 14.5946C14.3379 14.5297 14.4033 14.5297 14.4687 14.4649L14.5341 14.4C14.5995 14.3351 14.6648 14.3027 14.7302 14.2378C14.7956 14.173 14.861 14.1081 14.8937 14.0432C14.9591 13.9135 14.9918 13.7514 15.0245 13.5892C15.0245 13.5243 15.0245 13.427 15.0245 13.3622C15.0245 13.3622 14.9918 13.3297 14.9264 13.2973Z" fill="#fff"/></g></svg>