<svg width="32" height="32" viewBox="0 0 32 32" fill="none" xmlns="http://www.w3.org/2000/svg"><path d="M15.9999 0C9.21173 0 3.68896 5.52276 3.68896 12.311C3.68896 18.7275 13.9073 29.774 15.0723 31.014L15.9999 32L16.9275 31.014C18.0928 29.7751 28.3109 18.7275 28.3109 12.311C28.3115 5.52276 22.7887 0 15.9999 0ZM15.9999 17.4057C13.1911 17.4057 10.9057 15.1203 10.9057 12.3115C10.9057 9.50258 13.1911 7.21727 15.9999 7.21727C18.8093 7.21727 21.0941 9.50267 21.0941 12.3115C21.0941 15.1204 18.8093 17.4057 15.9999 17.4057Z" fill="url(#paint0_linear)"/><defs><linearGradient id="paint0_linear" x1="3.689" y1="23.184" x2="19.253" y2="23.184" gradientUnits="userSpaceOnUse"><stop stop-color="#DD3A89"/><stop offset="1" stop-color="#3194C6"/></linearGradient></defs></svg>